<svg width="36" height="36" viewBox="0 0 36 36" fill="none" xmlns="http://www.w3.org/2000/svg">
<g clip-path="url(#clip0_1_375)">
<path d="M33.8277 5.97586H31.6547V12.495H36.0007V8.1489C36.0007 6.94866 35.0279 5.97586 33.8277 5.97586Z" fill="#FFA436"/>
<path d="M33.8277 8.14891L27.3086 16.8411H0.000732422V3.80283C0.000732422 2.60259 0.973529 1.62979 2.17377 1.62979H12.7543C13.3309 1.62979 13.8835 1.85868 14.2914 2.26649L18.0007 5.97587H31.6547C32.8549 5.97587 33.8277 6.94866 33.8277 8.14891Z" fill="#FFBC2B"/>
<path d="M31.6547 8.1489L27.3086 13.5815H33.8277V8.1489H31.6547Z" fill="#8AE7FF"/>
<path d="M31.6547 8.1489V19.0141L2.17383 10.3219V8.1489H31.6547Z" fill="#BDF2FF"/>
<path d="M2.17383 10.3219H23.2472V16.841H2.17383V10.3219Z" fill="white"/>
<path d="M33.8277 10.3219L31.6547 12.495V34.3702H33.8277C35.0279 34.3702 36.0007 33.3974 36.0007 32.1972V12.495C36.0007 11.2947 35.0279 10.3219 33.8277 10.3219Z" fill="#FFBC2B"/>
<path d="M33.8277 10.3219V32.1972C33.8277 33.3974 32.8549 34.3702 31.6547 34.3702H2.17377C0.973529 34.3702 0.000732422 33.3974 0.000732422 32.1972V16.841C0.000732422 15.6408 0.973529 14.668 2.17377 14.668H18.0007L21.7101 10.9586C22.1179 10.5508 22.6706 10.3219 23.2472 10.3219H33.8277Z" fill="#FFCF66"/>
</g>
<defs>
<clipPath id="clip0_1_375">
<rect width="36" height="36" fill="white" transform="translate(0.000732422)"/>
</clipPath>
</defs>
</svg>
